<?xml version="1.0" encoding="UTF-8" standalone="no"?>
<!-- Generator: Adobe Illustrator 16.0.0, SVG Export Plug-In . SVG Version: 6.00 Build 0)  -->

<svg
   version="1.1"
   id="Layer_1"
   x="0px"
   y="0px"
   width="800px"
   height="1200px"
   viewBox="0 0 800 1200"
   enable-background="new 0 0 800 1200"
   xml:space="preserve"
   sodipodi:docname="logo.svg"
   inkscape:version="1.1.1 (3bf5ae0d25, 2021-09-20)"
   inkscape:export-filename="C:\Users\X\Documents\Projects\3 CommerceJS Stripe - Office Supplies Inc\src\assets\logo.png"
   inkscape:export-xdpi="96"
   inkscape:export-ydpi="96"
   xmlns:inkscape="http://www.inkscape.org/namespaces/inkscape"
   xmlns:sodipodi="http://sodipodi.sourceforge.net/DTD/sodipodi-0.dtd"
   xmlns="http://www.w3.org/2000/svg"
   xmlns:svg="http://www.w3.org/2000/svg"><defs
   id="defs1160">
	
	

		
	
			
			
		</defs><sodipodi:namedview
   id="namedview1158"
   pagecolor="#ffffff"
   bordercolor="#666666"
   borderopacity="1.0"
   inkscape:pageshadow="2"
   inkscape:pageopacity="0.0"
   inkscape:pagecheckerboard="0"
   showgrid="false"
   inkscape:zoom="0.7075"
   inkscape:cx="391.51943"
   inkscape:cy="537.80919"
   inkscape:window-width="1920"
   inkscape:window-height="1057"
   inkscape:window-x="-8"
   inkscape:window-y="-8"
   inkscape:window-maximized="1"
   inkscape:current-layer="Layer_1" />


<g
   id="g1968"><g
     id="g1137"
     transform="translate(12.720852,4.2402827)">
				<g
   id="g1037">
					<polygon
   fill="#e58645"
   points="383.138,819.621 354.331,828.973 173.311,271.798 202.117,262.441 "
   id="polygon1025" />
					
						<rect
   x="277.854"
   y="250.44501"
   transform="matrix(0.951,-0.3091,0.3091,0.951,-153.9743,114.8304)"
   fill="#cf5a20"
   width="15.146"
   height="585.84998"
   id="rect1027" />
					<polygon
   fill="#218e6c"
   points="211.183,290.337 182.376,299.696 179.791,291.725 208.59,282.365 "
   id="polygon1029" />
					
						<rect
   x="182.504"
   y="296.14899"
   transform="matrix(0.9511,-0.3089,0.3089,0.9511,-82.3011,75.623)"
   fill="#218e6c"
   width="30.289"
   height="3.098"
   id="rect1031" />
					<polygon
   fill="#218e6c"
   points="207.938,280.372 179.14,289.732 178.187,286.786 206.981,277.431 "
   id="polygon1033" />
					<polygon
   fill="#deaeba"
   points="206.981,277.431 178.187,286.786 173.311,271.798 202.117,262.441 "
   id="polygon1035" />
				</g>
				<g
   id="g1051">
					
						<rect
   x="263.228"
   y="184.285"
   transform="matrix(0.9698,-0.2437,0.2437,0.9698,-107.9506,82.0245)"
   fill="#e5b34d"
   width="28.478001"
   height="585.85999"
   id="rect1039" />
					<polygon
   fill="#cf8f27"
   points="362.669,757.842 348.861,761.295 206.075,193.119 219.883,189.648 "
   id="polygon1041" />
					<polygon
   fill="#265e8e"
   points="227.039,218.096 199.42,225.041 197.377,216.911 224.991,209.972 "
   id="polygon1043" />
					
						<rect
   x="199.67101"
   y="222.757"
   transform="matrix(0.9699,-0.2436,0.2436,0.9699,-48.1886,58.8524)"
   fill="#265e8e"
   width="28.476999"
   height="3.095"
   id="rect1045" />
					<polygon
   fill="#265e8e"
   points="224.478,207.935 196.865,214.876 196.105,211.875 223.722,204.94 "
   id="polygon1047" />
					<polygon
   fill="#debeb6"
   points="223.722,204.94 196.105,211.875 192.264,196.589 219.883,189.648 "
   id="polygon1049" />
				</g>
				<g
   id="g1065">
					
						<rect
   x="341.724"
   y="148.22501"
   transform="matrix(0.9907,-0.136,0.136,0.9907,-56.6935,52.5309)"
   fill="#e58645"
   width="28.705"
   height="585.85303"
   id="rect1053" />
					<polygon
   fill="#cf5a20"
   points="410.146,729.402 395.924,731.35 316.221,150.95 330.443,148.995 "
   id="polygon1055" />
					<polygon
   fill="#218e6c"
   points="334.436,178.053 306,181.964 304.858,173.656 333.286,169.75 "
   id="polygon1057" />
					<polygon
   fill="#218e6c"
   points="335.027,182.381 306.594,186.285 306.171,183.219 334.601,179.317 "
   id="polygon1059" />
					<polygon
   fill="#218e6c"
   points="332.999,167.672 304.574,171.581 304.154,168.516 332.582,164.607 "
   id="polygon1061" />
					<polygon
   fill="#deaeba"
   points="332.582,164.607 304.154,168.516 302.008,152.9 330.443,148.995 "
   id="polygon1063" />
				</g>
				<g
   id="g1071">
					<polygon
   fill="#40a080"
   points="471.973,816.203 446.506,825.729 241.146,277.06 266.604,267.525 "
   id="polygon1067" />
					<polygon
   fill="#218e6c"
   points="471.973,816.203 459.236,820.965 253.876,272.292 266.604,267.525 "
   id="polygon1069" />
				</g>
				<g
   id="g1085">
					
						<rect
   x="446.64099"
   y="343.37201"
   transform="matrix(0.9986,0.0521,-0.0521,0.9986,33.8046,-23.2335)"
   fill="#e58645"
   width="31.129"
   height="585.85101"
   id="rect1073" />
					<polygon
   fill="#cf5a20"
   points="462.458,929.635 446.912,928.822 477.501,343.771 493.041,344.585 "
   id="polygon1075" />
					
						<rect
   x="460.61801"
   y="364.68799"
   transform="matrix(0.9986,0.052,-0.052,0.9986,19.8399,-24.2787)"
   fill="#218e6c"
   width="31.135"
   height="8.3850002"
   id="rect1077" />
					<polygon
   fill="#218e6c"
   points="491.285,378.243 460.198,376.617 460.349,373.526 491.442,375.151 "
   id="polygon1079" />
					<polygon
   fill="#218e6c"
   points="492.045,363.415 460.975,361.792 461.137,358.701 492.219,360.323 "
   id="polygon1081" />
					
						<rect
   x="461.52399"
   y="343.76001"
   transform="matrix(0.9986,0.0521,-0.0521,0.9986,18.9744,-24.3859)"
   fill="#deaeba"
   width="31.124001"
   height="15.762"
   id="rect1083" />
				</g>
				<g
   id="g1099">
					
						<rect
   x="409.16699"
   y="185.748"
   transform="matrix(0.9996,0.0275,-0.0275,0.9996,13.336,-11.4466)"
   fill="#e5d192"
   width="26.537001"
   height="585.849"
   id="rect1087" />
					<polygon
   fill="#cfb36d"
   points="427.64,771.852 414.376,771.492 430.496,185.861 443.76,186.223 "
   id="polygon1089" />
					<polygon
   fill="#53608e"
   points="442.954,215.543 416.427,214.819 416.659,206.44 443.187,207.167 "
   id="polygon1091" />
					
						<rect
   x="416.341"
   y="216.455"
   transform="matrix(0.9996,0.0274,-0.0274,0.9996,6.1382,-11.6961)"
   fill="#53608e"
   width="26.537001"
   height="3.095"
   id="rect1093" />
					<polygon
   fill="#53608e"
   points="443.238,205.07 416.711,204.345 416.804,201.249 443.325,201.978 "
   id="polygon1095" />
					<polygon
   fill="#dedede"
   points="443.325,201.978 416.804,201.249 417.232,185.494 443.76,186.223 "
   id="polygon1097" />
				</g>
				<g
   id="g1105">
					<polygon
   fill="#62cca3"
   points="438.539,858.965 414.376,852.986 555.06,284.274 579.216,290.242 "
   id="polygon1101" />
					<polygon
   fill="#50a37f"
   points="438.539,858.965 426.458,855.963 567.141,287.258 579.216,290.242 "
   id="polygon1103" />
				</g>
				<g
   id="g1119">
					<polygon
   fill="#e58645"
   points="478.746,888.285 448.969,880.521 596.912,313.649 626.689,321.425 "
   id="polygon1107" />
					<polygon
   fill="#cf5a20"
   points="478.746,888.285 463.849,884.391 611.792,317.54 626.689,321.425 "
   id="polygon1109" />
					
						<rect
   x="590.05402"
   y="337.673"
   transform="matrix(0.9676,0.2524,-0.2524,0.9676,105.8914,-141.749)"
   fill="#218e6c"
   width="30.785999"
   height="8.3809996"
   id="rect1111" />
					<polygon
   fill="#218e6c"
   points="618.178,354.033 588.395,346.26 589.165,343.261 618.96,351.038 "
   id="polygon1113" />
					<polygon
   fill="#218e6c"
   points="621.927,339.663 592.132,331.892 592.926,328.9 622.709,336.676 "
   id="polygon1115" />
					<polygon
   fill="#deaeba"
   points="622.709,336.676 592.926,328.9 596.912,313.649 626.689,321.425 "
   id="polygon1117" />
				</g>
				<path
   fill="#444f75"
   d="m 507.416,249.421 c 0.023,2.216 0.104,4.436 0.191,6.649 -2.671,0.264 -11.455,0.796 -13.165,2.407 -0.834,0.779 -1.321,1.99 -1.593,3.398 -0.268,-1.408 -0.754,-2.619 -1.588,-3.398 -1.71,-1.611 -10.494,-2.144 -13.159,-2.407 0.081,-2.214 0.162,-4.434 0.19,-6.649 0.256,-21.799 -7.486,-46.59 -28.752,-56.499 -21.821,-10.169 -44.327,3.089 -57.176,20.866 -20.831,28.824 -28.32,71.074 -15.604,104.561 6.907,18.218 20.017,32.614 36.368,42.913 10.569,6.652 24.656,10.914 33.139,20.408 7.342,8.229 7.295,20.414 7.95,30.792 1.014,16.117 2.578,32.115 4.571,48.134 1.988,-2.743 4.693,-4.337 6.264,-7.445 1.918,12.386 3.541,24.812 5.748,37.145 2.603,14.533 4.341,29.117 7.302,43.609 3.847,18.847 3.772,38.374 5.116,57.536 1.055,14.94 2.88,29.855 4.265,44.759 1.177,12.597 0.817,25.46 1.75,38.115 0.18,6.565 0.765,12.893 2.226,18.583 0.625,-0.012 1.065,-0.203 1.391,-0.516 0.336,0.313 0.775,0.504 1.391,0.516 4.484,-17.477 7.532,-34.877 10.359,-52.7 2.354,-14.811 3.431,-24.568 4.357,-38.881 1.003,-15.558 2.388,-30.991 2.689,-46.563 0.186,-9.526 0.231,-19.977 -1.084,-29.447 -0.191,-1.371 -0.405,-2.681 -0.654,-3.958 1.732,-10.346 3.141,-20.712 4.994,-31.053 2.214,-12.333 3.836,-24.759 5.748,-37.145 1.576,3.108 4.276,4.702 6.27,7.445 1.994,-16.019 3.553,-32.017 4.566,-48.134 0.648,-10.378 0.603,-22.563 7.956,-30.792 8.478,-9.494 22.569,-13.756 33.138,-20.408 16.353,-10.299 29.459,-24.695 36.366,-42.913 12.713,-33.486 5.227,-75.736 -15.61,-104.561 -12.846,-17.777 -35.352,-31.035 -57.168,-20.866 -21.266,9.909 -29.019,34.7 -28.752,56.499 z m -86.105,80.873 c -24.872,-6.322 -30.563,-31.377 -32.509,-53.572 l -0.359,-2.892 c 1.391,-18.742 3.586,-36.094 15.216,-51.725 11.117,-14.943 31.779,-28.942 46.475,-10.496 16.363,20.564 19.18,53.019 14.068,77.831 -4.254,20.608 -17.563,47.294 -42.891,40.854 z m 83.069,45.304 c 0.47,9.778 0.533,19.6 0.052,29.375 -0.516,10.462 -4.896,18.623 -6.043,29.041 5.064,5.056 -1.791,37.919 -3.726,44.638 -0.517,1.773 -1.118,3.512 -1.813,5.224 -0.685,-1.712 -1.293,-3.45 -1.803,-5.224 -1.936,-6.719 -8.79,-39.582 -3.731,-44.638 -1.147,-10.418 -5.528,-18.579 -6.038,-29.041 -0.48,-9.775 -0.417,-19.597 0.053,-29.375 0.684,-14.075 0.22,-27.952 1.796,-41.964 1.448,-12.846 2.179,-25.724 2.155,-38.66 -0.012,-8.254 -3.048,-20.063 7.533,-21.929 0,-0.395 0.012,-0.849 0.035,-1.345 0.028,0.496 0.052,0.95 0.046,1.345 10.581,1.865 7.544,13.675 7.526,21.929 -0.028,12.937 0.713,25.814 2.15,38.66 1.576,14.012 1.118,27.888 1.808,41.964 z m 77.669,-153.493 c 11.623,15.631 13.825,32.982 15.216,51.725 l -0.359,2.892 c -1.94,22.195 -7.637,47.25 -32.513,53.572 -25.327,6.44 -38.643,-20.246 -42.885,-40.854 -5.11,-24.813 -2.3,-57.267 14.069,-77.831 14.689,-18.446 35.347,-4.447 46.472,10.496 z"
   id="path1121" />
				<g
   id="g1135">
					<polygon
   fill="#6777e5"
   points="378.619,841.988 348.296,840.4 378.885,255.348 409.202,256.936 "
   id="polygon1123" />
					<polygon
   fill="#3f61cf"
   points="378.619,841.988 363.455,841.188 394.046,256.139 409.202,256.936 "
   id="polygon1125" />
					<polygon
   fill="#8e5c36"
   points="407.666,286.227 377.347,284.645 377.793,276.275 408.101,277.857 "
   id="polygon1127" />
					<polygon
   fill="#8e5c36"
   points="407.446,290.592 377.129,289.005 377.28,285.914 407.603,287.501 "
   id="polygon1129" />
					<polygon
   fill="#8e5c36"
   points="408.211,275.765 377.903,274.18 378.065,271.088 408.379,272.673 "
   id="polygon1131" />
					
						<rect
   x="378.45401"
   y="256.13"
   transform="matrix(0.9986,0.0522,-0.0522,0.9986,14.3221,-20.1931)"
   fill="#cfded9"
   width="30.355"
   height="15.762"
   id="rect1133" />
				</g>
			</g><g
     id="g1149"
     transform="translate(12.720852,4.2402827)">
				<rect
   x="214"
   y="481"
   fill="#52ba9c"
   width="404"
   height="570"
   id="rect1139" />
				<rect
   x="214"
   y="600"
   fill="#ffffff"
   width="404"
   height="36"
   id="rect1141" />
				<rect
   x="214"
   y="701"
   fill="#ffffff"
   width="404"
   height="18"
   id="rect1143" />
				<rect
   x="214"
   y="778"
   fill="#ffffff"
   width="404"
   height="36"
   id="rect1145" />
				<rect
   x="214"
   y="855"
   fill="#ffffff"
   width="404"
   height="60"
   id="rect1147" />
			</g><path
     style="fill:#000942;fill-opacity:1.0;stroke-width:1.41343"
     d="m 227.56184,544.87633 v -58.65725 h 201.41343 201.41342 v 58.65725 58.65724 H 428.97527 227.56184 Z"
     id="path1471" /><path
     style="fill:#000942;fill-opacity:1.0;stroke-width:1.41343"
     d="m 227.56184,544.87633 v -58.65725 h 201.41343 201.41342 v 58.65725 58.65724 H 428.97527 227.56184 Z"
     id="path1547" /><path
     style="fill:#000942;fill-opacity:1;stroke-width:1.41343"
     d="m 227.56184,672.08481 v -31.80212 h 201.41343 201.41342 v 31.80212 31.80212 H 428.97527 227.56184 Z"
     id="path1623" /><path
     style="fill:#000942;fill-opacity:1;stroke-width:1.41343"
     d="m 227.56184,752.65018 v -28.97527 h 201.41343 201.41342 v 28.97527 28.97526 H 428.97527 227.56184 Z"
     id="path1662" /><path
     style="fill:#000942;fill-opacity:1;stroke-width:1.41343"
     d="m 227.56184,838.16254 v -19.78798 h 201.41343 201.41342 v 19.78798 19.78799 H 428.97527 227.56184 Z"
     id="path1701" /><path
     style="fill:#000942;fill-opacity:1;stroke-width:1.41343"
     d="m 227.56184,987.27915 v -67.13781 h 201.41343 201.41342 v 67.13781 67.13785 H 428.97527 227.56184 Z"
     id="path1740" /><path
     style="fill:#000942;fill-opacity:1;stroke-width:1.41343"
     d="m 227.56184,544.87633 v -58.65725 h 201.41343 201.41342 v 58.65725 58.65724 H 428.97527 227.56184 Z"
     id="path1779" /></g></svg>
